<svg width="26" height="25" viewBox="0 0 26 25" fill="none" xmlns="http://www.w3.org/2000/svg">
<path d="M10.0952 14.0422C10.0952 14.9986 10.8922 15.7676 11.8698 15.7676L13.8676 15.7676C14.7177 15.7676 15.4084 15.0972 15.4084 14.2591C15.4084 13.3618 14.9834 13.0365 14.3564 12.8294L11.1579 11.7941C10.5309 11.5871 10.1059 11.2716 10.1059 10.3645C10.1059 9.53628 10.7965 8.85596 11.6467 8.85596L13.6444 8.85596C14.6221 8.85596 15.4191 9.62502 15.4191 10.5814" stroke="white" stroke-width="1.5" stroke-linecap="round" stroke-linejoin="round"/>
<path d="M12.7515 7.87988L12.7515 16.7536" stroke="white" stroke-width="1.5" stroke-linecap="round" stroke-linejoin="round"/>
<path d="M23.3783 12.3168C23.3783 17.7593 18.6177 22.1765 12.7519 22.1765C6.88611 22.1765 2.12549 17.7593 2.12549 12.3168C2.12549 6.87419 6.88611 2.45703 12.7519 2.45703" stroke="white" stroke-width="1.5" stroke-linecap="round" stroke-linejoin="round"/>
<path d="M18.0649 3.44287L18.0649 7.38676L22.3155 7.38676" stroke="white" stroke-width="1.5" stroke-linecap="round" stroke-linejoin="round"/>
<path d="M23.3781 2.45703L18.0649 7.38689" stroke="white" stroke-width="1.5" stroke-linecap="round" stroke-linejoin="round"/>
</svg>
